<svg
  width="219"
  height="80"
  viewBox="0 0 219 80"
  fill="none"
  xmlns="http://www.w3.org/2000/svg"
>
  <g id="logoMain">
    <g clip-path="url(#clip0)">
      <g id="brand-container" filter="url(#filter0_d)">
        <path
          id="default text"
          d="M100.856 33.29L91.6177 33L91.5532 30.2715L95.27 30.1211L94.3462 28.4023H87.2456L86.4507 30.1211L89.9634 30.1426L89.813 33.5264L80.5962 32.7529L80.6606 30.0566L83.4536 30.0781L88.6313 21.2695L83.6792 21.4736V17.9932H92.8315L97.5151 30.0352L100.856 29.8955V33.29ZM87.9223 26.9307H93.5512L90.5219 21.291L87.9223 26.9307ZM116.206 33.5264L110.749 33.2686L110.771 31.9473C110.341 32.2839 109.893 32.5417 109.428 32.7207C108.962 32.8997 108.536 33.0286 108.149 33.1074C107.691 33.2005 107.244 33.2542 106.807 33.2686C106.499 33.2686 106.151 33.2327 105.765 33.1611C105.385 33.0967 104.995 32.9857 104.594 32.8281C104.2 32.6634 103.81 32.445 103.423 32.1729C103.043 31.9007 102.703 31.5605 102.402 31.1523C102.109 30.7441 101.869 30.2607 101.683 29.7021C101.504 29.1364 101.414 28.4847 101.414 27.7471C101.414 26.9951 101.504 26.3327 101.683 25.7598C101.869 25.1797 102.116 24.682 102.424 24.2666C102.732 23.8441 103.09 23.4932 103.498 23.2139C103.913 22.9274 104.347 22.7018 104.798 22.5371C105.256 22.3652 105.722 22.2435 106.194 22.1719C106.667 22.1003 107.122 22.0645 107.559 22.0645C107.945 22.0716 108.336 22.111 108.73 22.1826C109.066 22.2399 109.424 22.333 109.804 22.4619C110.19 22.5908 110.556 22.7734 110.899 23.0098L110.964 19.2285L107.645 19.583L107.559 17.7354L114.659 17.0693L113.864 31.4209H116.206V33.5264ZM107.752 23.6543C107.308 23.6543 106.921 23.7796 106.592 24.0303C106.27 24.2809 105.997 24.6032 105.775 24.9971C105.561 25.3838 105.399 25.8171 105.292 26.2969C105.185 26.7695 105.131 27.2279 105.131 27.6719C105.131 28.1159 105.177 28.5778 105.271 29.0576C105.371 29.5374 105.528 29.9779 105.743 30.3789C105.958 30.7799 106.234 31.113 106.57 31.3779C106.914 31.6357 107.329 31.7646 107.816 31.7646C108.11 31.7503 108.422 31.668 108.751 31.5176C109.03 31.3958 109.345 31.1989 109.696 30.9268C110.054 30.6475 110.42 30.2536 110.792 29.7451L110.878 24.9434C110.448 24.6211 110.044 24.374 109.664 24.2021C109.292 24.0303 108.962 23.9049 108.676 23.8262C108.339 23.7331 108.031 23.6758 107.752 23.6543ZM131.696 22.0859L131.546 24.041L129.3 24.1592L126.239 32.957L121.845 33.2471L119.375 23.998L116.474 24.374L116.313 22.29L121.77 22.2148L124.982 31.0234L126.787 24.2666L125.444 24.3096V22.1504L131.696 22.0859ZM145.005 29.3262C144.733 30.0352 144.353 30.651 143.866 31.1738C143.387 31.6895 142.842 32.1191 142.234 32.4629C141.625 32.7995 140.98 33.0501 140.3 33.2148C139.62 33.3796 138.95 33.4619 138.291 33.4619C137.375 33.4619 136.558 33.3187 135.842 33.0322C135.126 32.7458 134.517 32.359 134.016 31.8721C133.514 31.3851 133.121 30.8158 132.834 30.1641C132.555 29.5052 132.394 28.807 132.351 28.0693C132.351 26.945 132.537 25.9854 132.909 25.1904C133.289 24.3883 133.801 23.7367 134.445 23.2354C135.097 22.734 135.856 22.3688 136.723 22.1396C137.589 21.9033 138.51 21.7852 139.484 21.7852C139.842 21.7852 140.21 21.8102 140.59 21.8604C140.977 21.9105 141.353 22 141.718 22.1289C142.083 22.2578 142.43 22.4368 142.76 22.666C143.097 22.888 143.397 23.1781 143.662 23.5361C143.934 23.887 144.164 24.3096 144.35 24.8037C144.536 25.2979 144.665 25.8815 144.736 26.5547L135.917 28.1338C135.974 28.6279 136.075 29.1113 136.218 29.584C136.368 30.0566 136.569 30.4756 136.819 30.8408C137.07 31.1989 137.378 31.4854 137.743 31.7002C138.116 31.9079 138.556 32.0046 139.065 31.9902C139.616 31.9258 140.103 31.7611 140.526 31.4961C140.705 31.3815 140.876 31.2419 141.041 31.0771C141.206 30.9053 141.349 30.7012 141.471 30.4648C141.593 30.2285 141.682 29.9528 141.739 29.6377C141.797 29.3226 141.807 28.9609 141.772 28.5527L145.005 29.3262ZM140.934 25.8672C140.905 25.5306 140.844 25.237 140.751 24.9863C140.658 24.7357 140.54 24.5208 140.397 24.3418C140.261 24.1628 140.107 24.016 139.935 23.9014C139.77 23.7796 139.602 23.6829 139.43 23.6113C139.029 23.4466 138.578 23.3714 138.076 23.3857C137.604 23.443 137.221 23.5791 136.927 23.7939C136.633 24.0016 136.404 24.263 136.239 24.5781C136.082 24.8861 135.974 25.2298 135.917 25.6094C135.86 25.9889 135.831 26.3757 135.831 26.7695L140.934 25.8672ZM153.942 30.9268L153.749 33.2471L146.369 33.1934V31.2383L148.592 31.1523L148.442 24.3955L146.154 24.46V22.5049L152.18 21.7314L152.03 23.7832C152.553 23.375 153.068 23.0599 153.577 22.8379C154.092 22.6087 154.554 22.4333 154.963 22.3115C155.442 22.1755 155.901 22.0859 156.338 22.043C157.047 22.043 157.648 22.1396 158.142 22.333C158.644 22.5192 159.048 22.7878 159.356 23.1387C159.671 23.4824 159.9 23.8978 160.044 24.3848C160.187 24.8717 160.259 25.4124 160.259 26.0068C160.259 26.2575 160.255 26.4795 160.248 26.6729C160.241 26.8662 160.226 27.056 160.205 27.2422C160.19 27.4212 160.169 27.611 160.14 27.8115C160.119 28.0049 160.09 28.2376 160.054 28.5098C160.019 28.7819 159.976 29.1042 159.926 29.4766C159.883 29.8418 159.832 30.2822 159.775 30.7979L162.063 30.6689L161.752 33.2471L156.005 33.0215C156.091 32.1836 156.166 31.4639 156.23 30.8623C156.295 30.2607 156.352 29.7487 156.402 29.3262C156.452 28.8965 156.492 28.5384 156.52 28.252C156.549 27.9583 156.574 27.7041 156.595 27.4893C156.617 27.2673 156.631 27.0667 156.638 26.8877C156.646 26.7087 156.649 26.5153 156.649 26.3076C156.649 25.9854 156.624 25.6846 156.574 25.4053C156.524 25.1188 156.434 24.8682 156.305 24.6533C156.184 24.4385 156.019 24.2702 155.811 24.1484C155.611 24.0195 155.36 23.9479 155.059 23.9336C154.787 23.9694 154.486 24.0553 154.157 24.1914C153.87 24.3132 153.534 24.4922 153.147 24.7285C152.768 24.9577 152.349 25.2871 151.89 25.7168L151.525 31.0449L153.942 30.9268ZM167.788 28.8643C167.788 29.251 167.842 29.5876 167.949 29.874C168.064 30.1605 168.218 30.4004 168.411 30.5938C168.605 30.7799 168.83 30.9196 169.088 31.0127C169.353 31.1058 169.636 31.1523 169.937 31.1523C170.238 31.1523 170.553 31.1058 170.882 31.0127C171.212 30.9196 171.537 30.7799 171.86 30.5938C172.182 30.4076 172.497 30.1748 172.805 29.8955C173.113 29.6162 173.399 29.2939 173.664 28.9287C173.736 29.1865 173.811 29.4694 173.89 29.7773C173.962 30.0423 174.04 30.3503 174.126 30.7012C174.219 31.0449 174.32 31.4137 174.427 31.8076C173.997 32.1299 173.575 32.3949 173.159 32.6025C172.744 32.8102 172.339 32.9749 171.946 33.0967C171.559 33.2184 171.186 33.3008 170.828 33.3438C170.47 33.3939 170.137 33.4189 169.829 33.4189C169.027 33.4189 168.347 33.3115 167.788 33.0967C167.237 32.889 166.775 32.6025 166.403 32.2373C166.037 31.8649 165.751 31.4316 165.543 30.9375C165.343 30.4362 165.192 29.8991 165.092 29.3262C164.992 28.7461 164.931 28.1445 164.909 27.5215C164.888 26.8913 164.877 26.2682 164.877 25.6523C164.877 25.4948 164.881 25.3158 164.888 25.1152C164.895 24.9147 164.906 24.7035 164.92 24.4814L162.353 24.5566L162.568 22.3115L165.167 22.1074C165.239 21.4987 165.314 20.9043 165.393 20.3242C165.479 19.7441 165.554 19.2214 165.618 18.7559C165.697 18.2116 165.772 17.696 165.844 17.209L169.324 17.4668C169.239 17.8535 169.153 18.276 169.067 18.7344C168.988 19.1283 168.898 19.5902 168.798 20.1201C168.705 20.6429 168.608 21.2122 168.508 21.8281L173.17 21.4521L173.106 24.2236L168.132 24.374C168.025 25.1761 167.939 25.9603 167.874 26.7266C167.817 27.4857 167.788 28.1982 167.788 28.8643ZM190.25 33.2471H184.438L184.578 31.4854C184.034 31.915 183.5 32.2445 182.977 32.4736C182.462 32.7028 182 32.8711 181.592 32.9785C181.112 33.1074 180.653 33.179 180.217 33.1934C179.536 33.1934 178.971 33.1074 178.519 32.9355C178.068 32.7565 177.707 32.5094 177.434 32.1943C177.169 31.8721 176.98 31.4889 176.865 31.0449C176.75 30.5938 176.693 30.0924 176.693 29.541C176.693 29.2474 176.697 28.9896 176.704 28.7676C176.711 28.5456 176.722 28.3343 176.736 28.1338C176.758 27.9261 176.779 27.7148 176.801 27.5C176.829 27.2852 176.861 27.0381 176.897 26.7588C176.94 26.4795 176.983 26.1572 177.026 25.792C177.076 25.4196 177.134 24.9756 177.198 24.46L174.91 24.5996L175.243 22.0215L180.55 22.2471C180.464 23.042 180.389 23.7331 180.324 24.3203C180.26 24.9004 180.202 25.4053 180.152 25.835C180.109 26.2646 180.07 26.6299 180.034 26.9307C180.005 27.2314 179.98 27.5 179.959 27.7363C179.937 27.9655 179.923 28.1732 179.916 28.3594C179.909 28.5384 179.905 28.7282 179.905 28.9287C179.905 29.251 179.93 29.5553 179.98 29.8418C180.03 30.1283 180.116 30.3789 180.238 30.5938C180.367 30.8086 180.532 30.9769 180.732 31.0986C180.94 31.2204 181.194 31.2812 181.495 31.2812C181.867 31.2598 182.247 31.1559 182.634 30.9697C182.963 30.8122 183.314 30.5651 183.686 30.2285C184.066 29.8919 184.428 29.4085 184.771 28.7783L185.104 24.2451L182.677 24.3311L182.902 22.0215L190.25 22.29V24.0195L187.811 24.1377L187.94 31.1523L190.25 31.3457V33.2471ZM200.626 30.54V32.3447L192.355 33.3975L192.043 30.6475L194.793 30.626L194.922 24.6641L191.581 24.417V22.5908L198.532 21.9785L198.177 24.374C198.335 24.2093 198.542 24.0195 198.8 23.8047C199.058 23.5827 199.341 23.3607 199.649 23.1387C199.964 22.9095 200.297 22.6803 200.648 22.4512C201.006 22.222 201.364 22.0143 201.722 21.8281C202.08 21.6348 202.431 21.4701 202.775 21.334C203.126 21.1908 203.448 21.0905 203.742 21.0332L204.032 24.5996C203 24.5996 202.112 24.6891 201.368 24.8682C200.63 25.0472 200.014 25.2441 199.52 25.459C198.947 25.7096 198.464 25.9925 198.07 26.3076L197.318 30.583L200.626 30.54ZM217.717 29.3262C217.445 30.0352 217.065 30.651 216.578 31.1738C216.098 31.6895 215.554 32.1191 214.945 32.4629C214.337 32.7995 213.692 33.0501 213.012 33.2148C212.331 33.3796 211.662 33.4619 211.003 33.4619C210.086 33.4619 209.27 33.3187 208.554 33.0322C207.838 32.7458 207.229 32.359 206.727 31.8721C206.226 31.3851 205.832 30.8158 205.546 30.1641C205.267 29.5052 205.105 28.807 205.062 28.0693C205.062 26.945 205.249 25.9854 205.621 25.1904C206.001 24.3883 206.513 23.7367 207.157 23.2354C207.809 22.734 208.568 22.3688 209.435 22.1396C210.301 21.9033 211.221 21.7852 212.195 21.7852C212.553 21.7852 212.922 21.8102 213.302 21.8604C213.688 21.9105 214.064 22 214.43 22.1289C214.795 22.2578 215.142 22.4368 215.472 22.666C215.808 22.888 216.109 23.1781 216.374 23.5361C216.646 23.887 216.875 24.3096 217.061 24.8037C217.248 25.2979 217.377 25.8815 217.448 26.5547L208.629 28.1338C208.686 28.6279 208.786 29.1113 208.93 29.584C209.08 30.0566 209.281 30.4756 209.531 30.8408C209.782 31.1989 210.09 31.4854 210.455 31.7002C210.827 31.9079 211.268 32.0046 211.776 31.9902C212.328 31.9258 212.815 31.7611 213.237 31.4961C213.416 31.3815 213.588 31.2419 213.753 31.0771C213.918 30.9053 214.061 30.7012 214.183 30.4648C214.304 30.2285 214.394 29.9528 214.451 29.6377C214.508 29.3226 214.519 28.9609 214.483 28.5527L217.717 29.3262ZM213.645 25.8672C213.617 25.5306 213.556 25.237 213.463 24.9863C213.37 24.7357 213.252 24.5208 213.108 24.3418C212.972 24.1628 212.818 24.016 212.646 23.9014C212.482 23.7796 212.313 23.6829 212.142 23.6113C211.741 23.4466 211.289 23.3714 210.788 23.3857C210.315 23.443 209.932 23.5791 209.639 23.7939C209.345 24.0016 209.116 24.263 208.951 24.5781C208.794 24.8861 208.686 25.2298 208.629 25.6094C208.572 25.9889 208.543 26.3757 208.543 26.7695L213.645 25.8672ZM84.05 49.5928C83.5344 49.736 83.051 49.8828 82.5998 50.0332C82.1486 50.1836 81.7512 50.3304 81.4074 50.4736L80.8166 47.4336C81.5829 47.1973 82.3277 46.9896 83.051 46.8105C83.7814 46.6315 84.4797 46.4775 85.1457 46.3486C85.8117 46.2197 86.4419 46.1123 87.0363 46.0264C87.6307 45.9404 88.1822 45.8688 88.6906 45.8115C89.8723 45.6826 90.9644 45.6146 91.967 45.6074C93.0197 45.6217 93.94 45.7256 94.7277 45.9189C95.5155 46.1123 96.1708 46.3844 96.6936 46.7354C97.2235 47.0863 97.621 47.5088 97.8859 48.0029C98.1509 48.4971 98.2834 49.0485 98.2834 49.6572C98.2834 50.4521 98.0972 51.1611 97.7248 51.7842C97.3596 52.4072 96.8726 52.9587 96.2639 53.4385C95.6551 53.9111 94.9569 54.3193 94.1691 54.6631C93.3885 55.0068 92.5829 55.2969 91.7522 55.5332C90.9214 55.7695 90.0979 55.9593 89.2814 56.1025C88.465 56.2386 87.7238 56.3424 87.0578 56.4141L87.0793 59.3574L90.7102 59.3789V61.8496L81.6008 62.4189L81.5363 59.3145L84.7482 59.3359L84.05 49.5928ZM91.3547 48.207C91.1112 48.207 90.8283 48.2249 90.5061 48.2607C90.191 48.2894 89.8472 48.3324 89.4748 48.3896C89.1024 48.4398 88.7085 48.5042 88.2932 48.583C87.8778 48.6618 87.4517 48.7477 87.0148 48.8408L87.0578 54.6523C87.5734 54.5449 88.1177 54.4124 88.6906 54.2549C89.2707 54.0902 89.84 53.9004 90.3986 53.6855C90.9644 53.4707 91.5015 53.2308 92.01 52.9658C92.5184 52.6937 92.9589 52.3965 93.3313 52.0742C93.7036 51.752 93.9901 51.4082 94.1906 51.043C94.3983 50.6706 94.4771 50.2767 94.427 49.8613C94.3911 49.5605 94.2909 49.3063 94.1262 49.0986C93.9615 48.8838 93.743 48.7119 93.4709 48.583C93.2059 48.4469 92.8908 48.3503 92.5256 48.293C92.1675 48.2357 91.7772 48.207 91.3547 48.207ZM108.198 59.54V61.3447L99.9265 62.3975L99.615 59.6475L102.365 59.626L102.494 53.6641L99.1531 53.417V51.5908L106.103 50.9785L105.749 53.374C105.906 53.2093 106.114 53.0195 106.372 52.8047C106.63 52.5827 106.913 52.3607 107.22 52.1387C107.536 51.9095 107.869 51.6803 108.219 51.4512C108.578 51.222 108.936 51.0143 109.294 50.8281C109.652 50.6348 110.003 50.4701 110.346 50.334C110.697 50.1908 111.02 50.0905 111.313 50.0332L111.603 53.5996C110.572 53.5996 109.684 53.6891 108.939 53.8682C108.202 54.0472 107.586 54.2441 107.092 54.459C106.519 54.7096 106.035 54.9925 105.641 55.3076L104.889 59.583L108.198 59.54ZM118.36 62.6553C117.364 62.6553 116.505 62.5049 115.782 62.2041C115.065 61.9033 114.475 61.4951 114.009 60.9795C113.551 60.4639 113.211 59.8623 112.989 59.1748C112.767 58.4873 112.656 57.7568 112.656 56.9834C112.656 55.945 112.835 55.0355 113.193 54.2549C113.558 53.4743 114.048 52.8262 114.664 52.3105C115.287 51.7878 116.007 51.3975 116.824 51.1396C117.64 50.8818 118.503 50.7529 119.412 50.7529C120.429 50.7529 121.285 50.9033 121.98 51.2041C122.682 51.5049 123.247 51.9095 123.677 52.418C124.107 52.9193 124.415 53.4993 124.601 54.1582C124.794 54.8099 124.891 55.4938 124.891 56.21C124.891 57.1839 124.733 58.0684 124.418 58.8633C124.11 59.6582 123.67 60.3385 123.097 60.9043C122.531 61.4629 121.844 61.8926 121.034 62.1934C120.232 62.5013 119.341 62.6553 118.36 62.6553ZM118.822 52.2139C118.442 52.2139 118.109 52.2962 117.823 52.4609C117.543 52.6185 117.3 52.8298 117.092 53.0947C116.892 53.3525 116.723 53.6462 116.587 53.9756C116.451 54.305 116.344 54.6416 116.265 54.9854C116.186 55.3219 116.129 55.6514 116.093 55.9736C116.064 56.2959 116.05 56.5752 116.05 56.8115C116.05 57.0693 116.068 57.3594 116.104 57.6816C116.14 57.9967 116.201 58.3154 116.286 58.6377C116.372 58.96 116.487 59.2751 116.63 59.583C116.773 59.891 116.952 60.1631 117.167 60.3994C117.382 60.6357 117.633 60.8255 117.919 60.9688C118.213 61.112 118.549 61.1836 118.929 61.1836C119.316 61.1836 119.645 61.112 119.917 60.9688C120.197 60.8255 120.429 60.6357 120.616 60.3994C120.809 60.1631 120.963 59.8945 121.077 59.5938C121.192 59.293 121.278 58.9886 121.335 58.6807C121.4 58.3656 121.443 58.0612 121.464 57.7676C121.486 57.474 121.496 57.2126 121.496 56.9834C121.496 56.6755 121.479 56.3424 121.443 55.9844C121.414 55.6263 121.36 55.2718 121.282 54.9209C121.21 54.5628 121.106 54.2227 120.97 53.9004C120.841 53.571 120.676 53.2845 120.476 53.041C120.283 52.7904 120.046 52.5898 119.767 52.4395C119.495 52.2891 119.18 52.2139 118.822 52.2139ZM133.484 66.8447L125.718 66.7051V65.083L127.716 64.9648L128.489 52.9551L125.718 52.7402V51.2686L131.615 50.6455L131.594 52.1924C131.787 52.0205 132.009 51.8558 132.26 51.6982C132.51 51.5407 132.786 51.401 133.087 51.2793C133.388 51.1504 133.717 51.0501 134.075 50.9785C134.433 50.9069 134.82 50.8711 135.235 50.8711C135.536 50.8711 135.873 50.9069 136.245 50.9785C136.617 51.043 136.99 51.1576 137.362 51.3223C137.742 51.4798 138.107 51.6947 138.458 51.9668C138.816 52.2389 139.131 52.5791 139.403 52.9873C139.683 53.3955 139.905 53.8789 140.069 54.4375C140.241 54.9961 140.327 55.6478 140.327 56.3926C140.327 57.1517 140.241 57.8213 140.069 58.4014C139.905 58.9743 139.679 59.472 139.392 59.8945C139.106 60.3099 138.773 60.6572 138.393 60.9365C138.014 61.2158 137.606 61.4414 137.169 61.6133C136.739 61.778 136.295 61.8962 135.837 61.9678C135.378 62.0322 134.931 62.0645 134.494 62.0645C134.143 62.0645 133.789 62.0322 133.431 61.9678C133.123 61.9176 132.79 61.8389 132.432 61.7314C132.081 61.6169 131.755 61.4557 131.454 61.248L131.411 64.7715L133.721 64.6426L133.484 66.8447ZM133.968 60.4854C134.405 60.4854 134.788 60.36 135.117 60.1094C135.447 59.8587 135.719 59.5365 135.933 59.1426C136.148 58.7487 136.309 58.319 136.417 57.8535C136.524 57.3809 136.578 56.9225 136.578 56.4785C136.578 56.0345 136.528 55.5726 136.428 55.0928C136.335 54.6058 136.181 54.1618 135.966 53.7607C135.758 53.3597 135.486 53.0303 135.149 52.7725C134.813 52.5146 134.405 52.3857 133.925 52.3857C133.667 52.4001 133.402 52.4681 133.13 52.5898C132.901 52.6901 132.643 52.8548 132.356 53.084C132.077 53.306 131.805 53.6247 131.54 54.04L131.475 59.3789C131.776 59.6582 132.073 59.873 132.367 60.0234C132.668 60.1667 132.936 60.2741 133.173 60.3457C133.452 60.4245 133.717 60.471 133.968 60.4854ZM154.571 58.3262C154.299 59.0352 153.919 59.651 153.432 60.1738C152.952 60.6895 152.408 61.1191 151.799 61.4629C151.191 61.7995 150.546 62.0501 149.866 62.2148C149.185 62.3796 148.516 62.4619 147.857 62.4619C146.94 62.4619 146.124 62.3187 145.408 62.0322C144.692 61.7458 144.083 61.359 143.581 60.8721C143.08 60.3851 142.686 59.8158 142.4 59.1641C142.121 58.5052 141.959 57.807 141.916 57.0693C141.916 55.945 142.103 54.9854 142.475 54.1904C142.855 53.3883 143.367 52.7367 144.011 52.2354C144.663 51.734 145.422 51.3688 146.289 51.1396C147.155 50.9033 148.075 50.7852 149.049 50.7852C149.407 50.7852 149.776 50.8102 150.156 50.8604C150.542 50.9105 150.918 51 151.284 51.1289C151.649 51.2578 151.996 51.4368 152.326 51.666C152.662 51.888 152.963 52.1781 153.228 52.5361C153.5 52.887 153.729 53.3096 153.915 53.8037C154.102 54.2979 154.231 54.8815 154.302 55.5547L145.483 57.1338C145.54 57.6279 145.64 58.1113 145.784 58.584C145.934 59.0566 146.135 59.4756 146.385 59.8408C146.636 60.1989 146.944 60.4854 147.309 60.7002C147.681 60.9079 148.122 61.0046 148.63 60.9902C149.182 60.9258 149.669 60.7611 150.091 60.4961C150.27 60.3815 150.442 60.2419 150.607 60.0771C150.772 59.9053 150.915 59.7012 151.037 59.4648C151.158 59.2285 151.248 58.9528 151.305 58.6377C151.362 58.3226 151.373 57.9609 151.337 57.5527L154.571 58.3262ZM150.499 54.8672C150.471 54.5306 150.41 54.237 150.317 53.9863C150.224 53.7357 150.106 53.5208 149.962 53.3418C149.826 53.1628 149.672 53.016 149.5 52.9014C149.336 52.7796 149.167 52.6829 148.996 52.6113C148.595 52.4466 148.143 52.3714 147.642 52.3857C147.169 52.443 146.786 52.5791 146.493 52.7939C146.199 53.0016 145.97 53.263 145.805 53.5781C145.648 53.8861 145.54 54.2298 145.483 54.6094C145.426 54.9889 145.397 55.3757 145.397 55.7695L150.499 54.8672ZM164.743 59.54V61.3447L156.472 62.3975L156.16 59.6475L158.91 59.626L159.039 53.6641L155.698 53.417V51.5908L162.648 50.9785L162.294 53.374C162.451 53.2093 162.659 53.0195 162.917 52.8047C163.175 52.5827 163.458 52.3607 163.766 52.1387C164.081 51.9095 164.414 51.6803 164.765 51.4512C165.123 51.222 165.481 51.0143 165.839 50.8281C166.197 50.6348 166.548 50.4701 166.892 50.334C167.243 50.1908 167.565 50.0905 167.858 50.0332L168.148 53.5996C167.117 53.5996 166.229 53.6891 165.484 53.8682C164.747 54.0472 164.131 54.2441 163.637 54.459C163.064 54.7096 162.58 54.9925 162.187 55.3076L161.435 59.583L164.743 59.54ZM174.26 57.8643C174.26 58.251 174.314 58.5876 174.421 58.874C174.536 59.1605 174.69 59.4004 174.883 59.5938C175.077 59.7799 175.302 59.9196 175.56 60.0127C175.825 60.1058 176.108 60.1523 176.409 60.1523C176.71 60.1523 177.025 60.1058 177.354 60.0127C177.683 59.9196 178.009 59.7799 178.332 59.5938C178.654 59.4076 178.969 59.1748 179.277 58.8955C179.585 58.6162 179.871 58.2939 180.136 57.9287C180.208 58.1865 180.283 58.4694 180.362 58.7773C180.433 59.0423 180.512 59.3503 180.598 59.7012C180.691 60.0449 180.792 60.4137 180.899 60.8076C180.469 61.1299 180.047 61.3949 179.631 61.6025C179.216 61.8102 178.811 61.9749 178.418 62.0967C178.031 62.2184 177.658 62.3008 177.3 62.3438C176.942 62.3939 176.609 62.4189 176.301 62.4189C175.499 62.4189 174.819 62.3115 174.26 62.0967C173.709 61.889 173.247 61.6025 172.875 61.2373C172.509 60.8649 172.223 60.4316 172.015 59.9375C171.815 59.4362 171.664 58.8991 171.564 58.3262C171.464 57.7461 171.403 57.1445 171.381 56.5215C171.36 55.8913 171.349 55.2682 171.349 54.6523C171.349 54.4948 171.353 54.3158 171.36 54.1152C171.367 53.9147 171.378 53.7035 171.392 53.4814L168.825 53.5566L169.04 51.3115L171.639 51.1074C171.711 50.4987 171.786 49.9043 171.865 49.3242C171.951 48.7441 172.026 48.2214 172.09 47.7559C172.169 47.2116 172.244 46.696 172.316 46.209L175.796 46.4668C175.711 46.8535 175.625 47.276 175.539 47.7344C175.46 48.1283 175.37 48.5902 175.27 49.1201C175.177 49.6429 175.08 50.2122 174.98 50.8281L179.642 50.4521L179.578 53.2236L174.604 53.374C174.497 54.1761 174.411 54.9603 174.346 55.7266C174.289 56.4857 174.26 57.1982 174.26 57.8643ZM190.609 59.5615L190.255 62.3115L182.241 62.0859L181.898 60.1309L185.152 59.9268L185.131 53.793L181.779 53.6855V51.9668L188.536 51.5264L187.72 59.7549L190.609 59.5615ZM188.536 49.002C188.536 49.1738 188.483 49.3385 188.375 49.4961C188.275 49.6465 188.135 49.779 187.956 49.8936C187.777 50.0081 187.566 50.1012 187.322 50.1729C187.086 50.2373 186.832 50.2695 186.56 50.2695C186.28 50.2695 186.019 50.2373 185.776 50.1729C185.539 50.1012 185.332 50.0081 185.152 49.8936C184.973 49.779 184.83 49.6465 184.723 49.4961C184.623 49.3385 184.572 49.1738 184.572 49.002C184.572 48.8229 184.623 48.6546 184.723 48.4971C184.83 48.3324 184.973 48.1927 185.152 48.0781C185.332 47.9635 185.539 47.874 185.776 47.8096C186.019 47.738 186.28 47.7021 186.56 47.7021C186.832 47.7021 187.086 47.738 187.322 47.8096C187.566 47.874 187.777 47.9635 187.956 48.0781C188.135 48.1927 188.275 48.3324 188.375 48.4971C188.483 48.6546 188.536 48.8229 188.536 49.002ZM204.284 58.3262C204.012 59.0352 203.632 59.651 203.145 60.1738C202.665 60.6895 202.121 61.1191 201.512 61.4629C200.904 61.7995 200.259 62.0501 199.579 62.2148C198.898 62.3796 198.229 62.4619 197.57 62.4619C196.653 62.4619 195.837 62.3187 195.121 62.0322C194.405 61.7458 193.796 61.359 193.295 60.8721C192.793 60.3851 192.399 59.8158 192.113 59.1641C191.834 58.5052 191.673 57.807 191.63 57.0693C191.63 55.945 191.816 54.9854 192.188 54.1904C192.568 53.3883 193.08 52.7367 193.724 52.2354C194.376 51.734 195.135 51.3688 196.002 51.1396C196.868 50.9033 197.788 50.7852 198.762 50.7852C199.12 50.7852 199.489 50.8102 199.869 50.8604C200.256 50.9105 200.632 51 200.997 51.1289C201.362 51.2578 201.709 51.4368 202.039 51.666C202.375 51.888 202.676 52.1781 202.941 52.5361C203.213 52.887 203.442 53.3096 203.629 53.8037C203.815 54.2979 203.944 54.8815 204.015 55.5547L195.196 57.1338C195.253 57.6279 195.354 58.1113 195.497 58.584C195.647 59.0566 195.848 59.4756 196.098 59.8408C196.349 60.1989 196.657 60.4854 197.022 60.7002C197.395 60.9079 197.835 61.0046 198.343 60.9902C198.895 60.9258 199.382 60.7611 199.804 60.4961C199.983 60.3815 200.155 60.2419 200.32 60.0771C200.485 59.9053 200.628 59.7012 200.75 59.4648C200.871 59.2285 200.961 58.9528 201.018 58.6377C201.076 58.3226 201.086 57.9609 201.05 57.5527L204.284 58.3262ZM200.213 54.8672C200.184 54.5306 200.123 54.237 200.03 53.9863C199.937 53.7357 199.819 53.5208 199.675 53.3418C199.539 53.1628 199.385 53.016 199.214 52.9014C199.049 52.7796 198.881 52.6829 198.709 52.6113C198.308 52.4466 197.856 52.3714 197.355 52.3857C196.882 52.443 196.499 52.5791 196.206 52.7939C195.912 53.0016 195.683 53.263 195.518 53.5781C195.361 53.8861 195.253 54.2298 195.196 54.6094C195.139 54.9889 195.11 55.3757 195.11 55.7695L200.213 54.8672ZM217.539 51L216.476 54.6523C216.125 54.4661 215.735 54.2835 215.305 54.1045C214.875 53.9255 214.431 53.7679 213.973 53.6318C213.522 53.4958 213.067 53.3883 212.609 53.3096C212.157 53.2236 211.731 53.1807 211.33 53.1807C210.772 53.1807 210.317 53.2666 209.966 53.4385C209.615 53.6032 209.44 53.8467 209.44 54.1689C209.44 54.3766 209.518 54.5557 209.676 54.7061C209.834 54.8493 210.07 54.9854 210.385 55.1143C210.707 55.2432 211.108 55.3685 211.588 55.4902C212.075 55.612 212.641 55.7516 213.285 55.9092C213.865 56.0452 214.41 56.1992 214.918 56.3711C215.427 56.5358 215.867 56.7471 216.239 57.0049C216.612 57.2627 216.906 57.5778 217.12 57.9502C217.335 58.3226 217.443 58.7773 217.443 59.3145C217.443 59.8874 217.321 60.3708 217.077 60.7646C216.841 61.1585 216.508 61.4808 216.078 61.7314C215.649 61.9749 215.14 62.1504 214.553 62.2578C213.973 62.3652 213.339 62.4189 212.652 62.4189C211.814 62.4189 211.094 62.3545 210.492 62.2256C209.898 62.0967 209.404 61.957 209.01 61.8066C208.623 61.6491 208.326 61.5059 208.118 61.377C207.918 61.248 207.793 61.1836 207.742 61.1836L207.528 62.9238L205.261 62.1504L206.486 58.6592C206.708 58.8024 206.976 58.9528 207.291 59.1104C207.606 59.2679 207.943 59.4255 208.301 59.583C208.659 59.7406 209.031 59.8945 209.418 60.0449C209.812 60.1882 210.199 60.3171 210.578 60.4316C210.958 60.5391 211.32 60.625 211.663 60.6895C212.007 60.7539 212.315 60.7861 212.587 60.7861C212.716 60.7861 212.859 60.7754 213.017 60.7539C213.174 60.7324 213.321 60.693 213.457 60.6357C213.6 60.5713 213.719 60.4854 213.812 60.3779C213.905 60.2633 213.951 60.113 213.951 59.9268C213.951 59.6976 213.869 59.5007 213.704 59.3359C213.54 59.1641 213.339 59.0173 213.103 58.8955C212.866 58.7738 212.612 58.6735 212.34 58.5947C212.075 58.5088 211.835 58.4336 211.62 58.3691C211.277 58.276 210.897 58.1686 210.482 58.0469C210.066 57.918 209.644 57.7712 209.214 57.6064C208.784 57.4346 208.369 57.2412 207.968 57.0264C207.567 56.8115 207.209 56.5645 206.894 56.2852C206.579 56.0059 206.324 55.6943 206.131 55.3506C205.945 55.0068 205.852 54.6201 205.852 54.1904C205.852 53.7536 205.956 53.3418 206.163 52.9551C206.371 52.5612 206.672 52.2174 207.066 51.9238C207.467 51.6302 207.957 51.3975 208.537 51.2256C209.125 51.0465 209.791 50.957 210.535 50.957C211.237 50.957 211.878 51.0251 212.458 51.1611C213.045 51.2972 213.554 51.4476 213.984 51.6123C214.485 51.7985 214.936 52.0133 215.337 52.2568L215.294 50.5596L217.539 51Z"
          fill="#7789C8"
        />
      </g>
      <g id="Group 12">
        <path
          id="Vector 6"
          d="M10.8333 47.1364L0 62H65L54.1667 47.1364L47.7652 34.0011L42.8409 35.0381L31.9672 19L21.1742 35.0381L15.8068 34.0011L10.8333 47.1364Z"
          fill="#7789C8"
          stroke="#7789C8"
        />
        <g id="Vector 7">
          <path
            d="M15.2732 47.134L26.2397 39.7009L37.2062 47.134V62H28.0675H24.412H15.2732V47.134Z"
            fill="#E5707A"
          />
          <path
            d="M15.2732 47.134L26.2397 39.7009L37.2062 47.134M15.2732 47.134V62H24.412M15.2732 47.134H37.2062M37.2062 47.134V62H28.0675M24.412 62H28.0675M24.412 62V58.2835V54.567H28.0675V58.2835V62"
            stroke="#FAF4F4"
          />
        </g>
      </g>
    </g>
  </g>
  <defs>
    <filter
      id="filter0_d"
      x="70"
      y="-6"
      width="159"
      height="100"
      filterUnits="userSpaceOnUse"
      color-interpolation-filters="sRGB"
    >
      <feFlood flood-opacity="0" result="BackgroundImageFix" />
      <feColorMatrix
        in="SourceAlpha"
        type="matrix"
        values="0 0 0 0 0 0 0 0 0 0 0 0 0 0 0 0 0 0 127 0"
      />
      <feOffset dy="4" />
      <feGaussianBlur stdDeviation="5" />
      <feColorMatrix
        type="matrix"
        values="0 0 0 0 0.466667 0 0 0 0 0.537255 0 0 0 0 0.784314 0 0 0 0.2 0"
      />
      <feBlend
        mode="normal"
        in2="BackgroundImageFix"
        result="effect1_dropShadow"
      />
      <feBlend
        mode="normal"
        in="SourceGraphic"
        in2="effect1_dropShadow"
        result="shape"
      />
    </filter>
    <clipPath id="clip0">
      <path d="M0 0H219V80H0V0Z" fill="white" />
    </clipPath>
  </defs>
</svg>