<svg width="16" height="16" viewBox="0 0 16 16" fill="none" xmlns="http://www.w3.org/2000/svg">
<path d="M12.6667 2.66668H12V2.00001C12 1.63334 11.7 1.33334 11.3333 1.33334C10.9667 1.33334 10.6667 1.63334 10.6667 2.00001V2.66668H5.33333V2.00001C5.33333 1.63334 5.03333 1.33334 4.66667 1.33334C4.3 1.33334 4 1.63334 4 2.00001V2.66668H3.33333C2.59333 2.66668 2.00667 3.26668 2.00667 4.00001L2 13.3333C2 14.0667 2.59333 14.6667 3.33333 14.6667H12.6667C13.4 14.6667 14 14.0667 14 13.3333V4.00001C14 3.26668 13.4 2.66668 12.6667 2.66668ZM12.6667 12.6667C12.6667 13.0333 12.3667 13.3333 12 13.3333H4C3.63333 13.3333 3.33333 13.0333 3.33333 12.6667V6.00001H12.6667V12.6667ZM4.66667 7.33334H5.33333H6V8.00001V8.66668H5.33333H4.66667V8.00001V7.33334ZM7.33333 7.33334H8.66667V8.66668H7.33333V7.33334ZM10 7.33334H11.3333V8.66668H10V7.33334Z" fill="#7789C8"/>
<path d="M4.66667 9.33334H5.33333H6V10V10.6667H5.33333H4.66667V10V9.33334Z" fill="#7789C8"/>
<path d="M7.33337 10.6667V9.33334H8.66671V10.6667H7.33337Z" fill="#7789C8"/>
<path d="M10 10.6667V9.33334H11.3333V10.6667H10Z" fill="#7789C8"/>
</svg>
